<svg width="68" height="34" viewBox="0 0 68 34" fill="none" xmlns="http://www.w3.org/2000/svg">
<path d="M68 2.37429C68.0002 2.686 67.9343 2.99468 67.8062 3.28271C67.6781 3.57073 67.4902 3.83246 67.2533 4.05294L35.8043 33.3052C35.3259 33.7501 34.677 34 34.0005 34C33.324 34 32.6752 33.7501 32.1968 33.3052L0.747747 4.05294C0.510761 3.8326 0.322751 3.571 0.194453 3.28307C0.0661542 2.99515 7.90488e-05 2.68653 7.08838e-08 2.37485C-7.8907e-05 2.06317 0.0658401 1.75452 0.193993 1.46654C0.322146 1.17856 0.510023 0.91687 0.746897 0.696426C0.983771 0.475983 1.265 0.301098 1.57454 0.181755C1.88407 0.0624123 2.21584 0.000946045 2.55091 0.000873566C2.88598 0.000801086 3.21779 0.0621185 3.52738 0.181328C3.83698 0.300533 4.1183 0.4753 4.35528 0.695637L33.9997 28.2708L63.6441 0.695637C64.0009 0.363522 64.4556 0.137321 64.9507 0.0456619C65.4457 -0.0459976 65.9589 0.000995636 66.4252 0.18071C66.8915 0.36042 67.2901 0.664772 67.5704 1.05524C67.8507 1.44571 68.0002 1.90475 68 2.37429Z" fill="#D4D4D4"/>
</svg>
