<svg width="36" height="55" viewBox="0 0 36 55" fill="none" xmlns="http://www.w3.org/2000/svg">
<g filter="url(#filter0_d_712_6436)">
<path d="M24.556 9.99976C24.4125 9.99968 24.2704 10.0336 24.1378 10.0995C24.0053 10.1655 23.8848 10.2622 23.7833 10.3841L10.3189 26.5711C10.1141 26.8173 9.99902 27.1513 9.99902 27.4995C9.99902 27.8477 10.1141 28.1816 10.3189 28.4279L23.7833 44.6149C23.8847 44.7369 24.0051 44.8336 24.1377 44.8997C24.2702 44.9657 24.4123 44.9997 24.5557 44.9998C24.6992 44.9998 24.8412 44.9659 24.9738 44.8999C25.1064 44.8339 25.2268 44.7372 25.3283 44.6153C25.4297 44.4934 25.5102 44.3487 25.5652 44.1893C25.6201 44.03 25.6484 43.8592 25.6484 43.6868C25.6485 43.5143 25.6202 43.3435 25.5654 43.1842C25.5105 43.0248 25.4301 42.88 25.3286 42.7581L12.6361 27.4999L25.3286 12.2418C25.4815 12.0581 25.5856 11.8241 25.6278 11.5693C25.67 11.3145 25.6484 11.0503 25.5657 10.8103C25.4829 10.5703 25.3428 10.3652 25.1631 10.2209C24.9834 10.0766 24.7721 9.99964 24.556 9.99976Z" fill="#FFFEFE"/>
</g>
<defs>
<filter id="filter0_d_712_6436" x="-0.000976562" y="-0.000244141" width="35.6499" height="55" filterUnits="userSpaceOnUse" color-interpolation-filters="sRGB">
<feFlood flood-opacity="0" result="BackgroundImageFix"/>
<feColorMatrix in="SourceAlpha" type="matrix" values="0 0 0 0 0 0 0 0 0 0 0 0 0 0 0 0 0 0 127 0" result="hardAlpha"/>
<feOffset/>
<feGaussianBlur stdDeviation="5"/>
<feComposite in2="hardAlpha" operator="out"/>
<feColorMatrix type="matrix" values="0 0 0 0 0 0 0 0 0 0 0 0 0 0 0 0 0 0 0.6 0"/>
<feBlend mode="normal" in2="BackgroundImageFix" result="effect1_dropShadow_712_6436"/>
<feBlend mode="normal" in="SourceGraphic" in2="effect1_dropShadow_712_6436" result="shape"/>
</filter>
</defs>
</svg>
