<svg width="29" height="28" viewBox="0 0 29 28" fill="none" xmlns="http://www.w3.org/2000/svg">
<g clip-path="url(#clip0_2713_7106)">
<path fill-rule="evenodd" clip-rule="evenodd" d="M4.46489 24.9094L3.00528 25.2879L3.09238 24.9665C3.18548 24.6211 3.26957 24.2848 3.35366 23.9544C3.54287 23.2066 3.72307 22.4918 3.96934 21.798C4.10449 21.4136 4.14654 21.0772 4.10149 20.7469C4.05644 20.4135 3.9273 20.0831 3.72007 19.7137C3.05333 18.5304 2.61485 17.2931 2.3866 16.0497C1.93009 13.5629 2.30551 11.0432 3.34766 8.83573C4.3898 6.6283 6.10169 4.72721 8.31213 3.48083C9.43536 2.85014 10.6877 2.38462 12.0482 2.13535C12.1744 2.11132 12.2915 2.0933 12.3966 2.07528C15.6042 1.58274 18.7066 2.40865 21.1573 4.15958C23.608 5.91051 25.401 8.58946 25.9896 11.794C26.0136 11.9231 26.0347 12.0403 26.0497 12.1484C26.5482 15.392 25.6803 18.5364 23.8753 20.9991C22.0703 23.4619 19.3283 25.2458 16.0727 25.7654C14.6731 25.9906 13.3156 25.9756 12.0032 25.7263C10.6667 25.4741 9.3783 24.9845 8.13493 24.2667C7.99378 24.1856 7.86764 24.1346 7.73549 24.1166C7.60635 24.0956 7.4712 24.1076 7.31803 24.1466C6.40202 24.4049 5.45898 24.6512 4.46789 24.9064L4.46489 24.9094ZM0.407416 27.4352L0.260254 27.9999C0.707747 27.8947 1.42253 27.7055 2.37458 27.4563C3.55789 27.1439 5.10159 26.7385 6.9246 26.282C7.08077 26.2429 7.26097 26.2339 7.43516 26.2549C7.60935 26.2729 7.78054 26.321 7.9247 26.3931C9.31824 27.0688 10.7418 27.5193 12.1984 27.7296C13.64 27.9398 15.1116 27.9188 16.6193 27.6605L16.7034 27.6455C20.4755 26.9607 23.605 24.8133 25.6232 21.8851C27.6444 18.9539 28.5544 15.2418 27.8847 11.4306L27.8697 11.3435C27.8306 11.1273 27.7856 10.905 27.7315 10.6798C26.9326 7.27702 24.8453 4.31876 22.0042 2.38462C19.1661 0.450493 15.5711 -0.456507 11.7629 0.234254C11.5287 0.276301 11.2854 0.327357 11.0331 0.387423C9.81979 0.672738 8.69355 1.0962 7.65741 1.6398C4.86132 3.10842 2.74399 5.43899 1.50362 8.172C0.266261 10.905 -0.0911333 14.0435 0.629661 17.1219C0.899959 18.2781 1.32343 19.4224 1.90607 20.5366C1.97815 20.6718 2.0232 20.837 2.03821 21.0021C2.05623 21.1733 2.04422 21.3475 2.00518 21.5007V21.5037C1.66881 22.7951 1.31442 24.0835 0.960025 25.369L0.611641 26.6303L0.398406 27.4412L0.407416 27.4352Z" fill="#FFC900"/>
<path fill-rule="evenodd" clip-rule="evenodd" d="M17.8658 20.6898C15.1117 20.5907 10.7209 18.4163 7.71758 13.1935C6.6514 11.3405 6.80457 9.22315 8.36629 7.76955C8.89487 7.274 9.5586 7.39413 10.1803 7.50225C10.3335 7.52628 10.4896 7.75754 10.5677 7.93173C10.9672 8.84473 11.3636 9.75474 11.712 10.6888C11.8952 11.1813 11.5588 11.6408 10.844 12.4637C10.6158 12.725 10.5677 12.9623 10.7479 13.2686C11.9042 15.2238 13.52 16.6413 15.6463 17.4702C15.9587 17.5904 16.1929 17.5153 16.3911 17.272C17.5174 15.8965 17.6315 15.4941 18.2262 15.7794C21.0763 17.1399 21.2985 17.1999 21.3106 17.5213C21.4067 19.9239 19.2052 20.7889 17.8688 20.6928L17.8658 20.6898Z" fill="#FFC900"/>
</g>
<defs>
<clipPath id="clip0_2713_7106">
<rect width="27.8407" height="28" fill="white" transform="translate(0.260254)"/>
</clipPath>
</defs>
</svg>
