<svg width="34" height="28" viewBox="0 0 34 28" fill="none" xmlns="http://www.w3.org/2000/svg">
<g clip-path="url(#clip0_2713_7111)">
<path d="M8.69723 17.1184C8.52159 16.642 8.76868 16.1121 9.24501 15.9365C9.72133 15.7608 10.2512 16.0079 10.4269 16.4843L13.7106 25.3529C13.8862 25.8292 13.6391 26.3591 13.1628 26.5348C12.6865 26.7104 12.1566 26.4633 11.9809 25.987L8.69723 17.1184Z" fill="#FFC900"/>
<path d="M14.0647 20.2324L13.9099 23.6947L16.1397 21.8043L14.0677 20.2324H14.0647ZM11.9778 25.7221L12.3053 18.4015H12.3082C12.3172 18.2199 12.3767 18.0413 12.4928 17.8865C12.7994 17.4816 13.377 17.4042 13.7789 17.7108L18.1075 20.9945C18.1819 21.0421 18.2504 21.1017 18.31 21.1731C18.6374 21.5601 18.5898 22.1436 18.2028 22.4711L13.4931 26.4663C13.3234 26.6092 13.1001 26.6926 12.859 26.6836C12.3499 26.6628 11.9569 26.2311 11.9808 25.725L11.9778 25.7221Z" fill="#FFC900"/>
<path d="M31.4448 0.125363C31.9211 -0.0532601 32.451 0.18788 32.6297 0.66123C32.8083 1.13756 32.5671 1.66747 32.0938 1.84609L2.12688 13.2333C1.65055 13.4119 1.12064 13.1708 0.942013 12.6974C0.76339 12.2211 1.00453 11.6912 1.47788 11.5126L31.4448 0.125363Z" fill="#FFC900"/>
<path d="M1.47781 11.5126C1.95413 11.3339 2.48405 11.5751 2.66267 12.0484C2.84129 12.5248 2.60015 13.0547 2.1268 13.2333C2.11192 13.2393 2.10596 13.2452 2.10299 13.2482L2.09703 13.278L2.10299 13.3018C2.10596 13.3077 2.11192 13.3107 2.1268 13.3167C2.60908 13.4774 2.86809 13.9984 2.70733 14.4807C2.54657 14.963 2.02558 15.222 1.5433 15.0612C0.956824 14.8617 0.566831 14.442 0.382255 13.9508C0.304851 13.7483 0.263173 13.528 0.260196 13.3077C0.257219 13.0874 0.289966 12.8671 0.358438 12.6617C0.52813 12.1645 0.90026 11.7299 1.47781 11.5126Z" fill="#FFC900"/>
<path d="M1.54322 15.0612C1.06094 14.9005 0.801936 14.3795 0.962697 13.8972C1.12346 13.4149 1.64444 13.1559 2.12672 13.3167L9.45323 15.7936L26.6873 5.44242C27.122 5.18044 27.6876 5.32334 27.9496 5.76096C28.1848 6.15393 28.0925 6.65407 27.7501 6.93987L14.675 18.3955L24.6272 25.9483C25.0321 26.2549 25.1095 26.8325 24.8029 27.2344C24.4962 27.6393 23.9187 27.7167 23.5168 27.41L12.7071 19.2083C12.6416 19.1636 12.5821 19.113 12.5285 19.0505C12.1951 18.6694 12.2338 18.0859 12.6148 17.7525L18.8279 12.3105L10.0427 17.5888C9.8194 17.7257 9.53956 17.7674 9.26865 17.6781L1.54024 15.0672L1.54322 15.0612Z" fill="#FFC900"/>
<path d="M23.5168 27.4071C23.112 27.1004 23.0346 26.5229 23.3412 26.121C23.6478 25.7161 24.2254 25.6387 24.6273 25.9453C24.7434 26.0347 24.8744 26.0942 25.0113 26.1269C25.2138 26.1776 25.4251 26.1656 25.6157 26.0972C25.8121 26.0287 25.9848 25.9066 26.1069 25.7429C26.1873 25.6387 26.2498 25.5107 26.2855 25.3618C26.4076 24.8677 26.9047 24.567 27.3989 24.689C27.8931 24.8111 28.1938 25.3083 28.0717 25.8024C27.9735 26.1984 27.7978 26.5527 27.5686 26.8533C27.2173 27.3148 26.7469 27.6512 26.226 27.8328H26.223C25.699 28.0174 25.1215 28.0531 24.5618 27.9132C24.2016 27.8239 23.8443 27.6571 23.5139 27.4071H23.5168Z" fill="#FFC900"/>
<path d="M28.0777 25.8055C27.9557 26.2997 27.4526 26.6004 26.9613 26.4753C26.4672 26.3533 26.1665 25.8501 26.2915 25.3589L32.1563 1.89982C32.2783 1.40563 32.7815 1.10495 33.2727 1.22999C33.7669 1.35205 34.0675 1.85517 33.9425 2.34638L28.0777 25.8055Z" fill="#FFC900"/>
<path d="M33.9424 2.34631C33.8204 2.8405 33.3172 3.14118 32.826 3.01615C32.3318 2.89409 32.0312 2.39097 32.1562 1.89976C32.1592 1.88785 32.1592 1.8819 32.1562 1.87594L32.1532 1.86701L32.1413 1.8551C32.1354 1.84915 32.1264 1.84617 32.1205 1.84319H32.1175C32.1115 1.84319 32.1026 1.84319 32.0937 1.84915C31.6173 2.02777 31.0874 1.78663 30.9088 1.31328C30.7302 0.836953 30.9713 0.307039 31.4447 0.128416C31.8079 -0.00852765 32.177 -0.0263899 32.5164 0.0480362L32.567 0.0599444C32.8677 0.13437 33.1416 0.283223 33.3649 0.482685C33.5703 0.664284 33.737 0.896494 33.8501 1.15847L33.8769 1.22397C34.0079 1.56633 34.0407 1.95334 33.9424 2.34929V2.34631Z" fill="#FFC900"/>
</g>
<defs>
<clipPath id="clip0_2713_7111">
<rect width="33.7388" height="28" fill="white" transform="translate(0.260254)"/>
</clipPath>
</defs>
</svg>
