<svg width="31" height="32" viewBox="0 0 31 32" fill="none" xmlns="http://www.w3.org/2000/svg">
<g clip-path="url(#clip0_2713_7099)">
<path fill-rule="evenodd" clip-rule="evenodd" d="M28.7865 13.2188C28.7708 11.8217 28.7519 10.166 28.3829 8.57013C28.0486 7.12569 27.4052 5.68755 26.15 4.49226C25.6044 3.97188 24.9799 3.53981 24.2671 3.19605C23.5323 2.83651 22.706 2.57159 21.7788 2.39498C20.0663 2.06698 18.1582 2.04491 16.3101 2.02598V2.03229H16.1839L16.1429 2.02283L15.5532 2.01337V2.01968H15.528V2.01337L14.935 2.02283L14.894 2.03229H14.7679V2.02598C12.9198 2.04491 11.0117 2.06698 9.29919 2.39498C8.37197 2.57159 7.54567 2.83651 6.81083 3.19605C6.09807 3.54296 5.47362 3.97504 4.92801 4.49226C3.6728 5.68755 3.02942 7.12569 2.69512 8.57013C2.32612 10.166 2.3072 11.8217 2.29143 13.2188V13.2283C2.28197 13.9284 2.27251 14.7547 2.32297 15.6883C2.36712 16.5366 2.46489 17.4544 2.66989 18.3911C2.78342 18.9083 2.91904 19.3845 3.07673 19.8166C3.23442 20.2518 3.42049 20.665 3.6318 21.0592C3.87779 21.5165 4.15533 21.936 4.4644 22.3144C4.77347 22.6929 5.12355 23.0493 5.51147 23.3741L5.50831 23.3772C5.82369 23.639 6.16115 23.8755 6.52068 24.09C6.87706 24.3013 7.23344 24.4779 7.58982 24.623L8.86711 25.1402V28.7009L12.0619 25.4493L12.9198 25.4588C13.7177 25.4682 14.5471 25.4556 15.386 25.443C15.5311 25.4304 15.5406 25.4304 15.6825 25.443L16.083 25.4493C16.3132 25.4525 16.534 25.4556 17.5527 25.4556C19.1485 25.4556 20.6718 25.3862 22.0343 25.074C23.3052 24.7838 24.4911 24.2698 25.5602 23.3772C25.9481 23.0493 26.2982 22.696 26.6073 22.3176C26.9163 21.936 27.1939 21.5197 27.4399 21.0624C27.6543 20.6681 27.8404 20.2518 27.9949 19.8198C28.1526 19.3877 28.2882 18.9115 28.4018 18.3911C28.6068 17.4544 28.7045 16.5366 28.7487 15.6883C28.796 14.7547 28.7865 13.9284 28.7802 13.2283V13.2188H28.7865ZM30.8081 13.2031C30.7734 10.188 30.7261 6.05339 27.5439 3.02574C26.1374 1.68537 24.3744 0.827538 22.1572 0.404928C20.287 0.045394 18.2655 0.0233174 16.3101 0.00439453H14.7679C12.8125 0.0264712 10.7909 0.0485478 8.92073 0.404928C6.70676 0.827538 4.94378 1.68853 3.53403 3.02574C0.35184 6.05339 0.304533 10.188 0.269841 13.2031C0.250918 14.698 0.228842 16.7353 0.686143 18.82C0.944755 19.9995 1.33583 21.075 1.84674 22.0211C2.45543 23.147 3.25019 24.1247 4.2121 24.9321C5.04155 25.6228 5.91831 26.1337 6.83922 26.5058V30.8518C6.83922 31.3185 7.11991 31.738 7.55513 31.9146C7.69705 31.9714 7.84528 31.9997 7.99036 31.9997C8.29312 31.9997 8.58643 31.8799 8.80719 31.6528L12.9103 27.4803C13.7618 27.4898 14.626 27.4772 15.5059 27.4614C15.5437 27.4551 15.5437 27.4551 15.5816 27.4614C16.2502 27.4709 16.9093 27.4835 17.5622 27.4835C20.9872 27.4835 24.1915 27.1713 26.8722 24.9289C27.8341 24.1215 28.6289 23.1439 29.2375 22.018C29.7485 21.0718 30.1395 19.9964 30.3981 18.8168C30.8554 16.7353 30.8334 14.6948 30.8144 13.1999L30.8081 13.2031Z" fill="#FFC900"/>
<path d="M21.4568 19.8351C20.9743 20.5951 19.0915 21.412 17.9088 21.5728C15.8872 21.8409 12.9289 20.5668 10.2987 17.9081C7.87339 15.2337 6.76325 12.3921 6.67179 10.3295C6.64026 9.65459 6.94933 7.71185 8.40639 6.78147C8.55462 6.69001 9.57645 6.03718 10.4816 6.39671C10.8222 6.52917 10.8348 6.83194 12.314 9.86905C12.6451 10.5471 12.1846 10.6796 10.6172 11.9916C10.4753 12.1083 10.3838 12.2376 10.3491 12.3795C10.3018 12.5656 10.3523 12.7327 10.3964 12.8494C11.0966 14.5903 12.3707 15.8644 12.3707 15.8644C12.3707 15.8644 13.6449 17.1417 15.3921 17.8419C15.5088 17.8892 15.6791 17.9365 15.862 17.8892C16.0039 17.8545 16.1332 17.763 16.2499 17.6211C17.5587 16.0537 17.6943 15.5901 18.3724 15.9244C21.4095 17.4066 21.7091 17.4161 21.8448 17.7567C22.2043 18.6587 21.5514 19.6837 21.46 19.8288L21.4568 19.8351Z" fill="#FFC900"/>
<path d="M16.4423 9.00493C16.7261 9.09954 17.01 9.22254 17.2938 9.36446C17.8237 9.63569 18.3283 9.98261 18.795 10.3958C19.2618 10.8057 19.6718 11.2631 20.0061 11.755C20.1859 12.02 20.3404 12.2849 20.4697 12.553C20.6589 12.9472 20.4634 13.2531 20.0629 13.1869C19.7601 13.1364 19.4353 12.8841 19.2933 12.5876C18.7793 11.5122 17.6849 10.5471 16.5527 10.1718C16.2404 10.0678 15.9503 9.77761 15.862 9.48431C15.7485 9.09639 16.026 8.86301 16.4391 9.00177L16.4423 9.00493Z" fill="#FFC900"/>
<path d="M22.5892 13.0387C22.2675 12.9883 21.9269 12.7107 21.7976 12.3922C20.9176 10.235 18.6879 8.27018 16.4361 7.66465C16.1049 7.5795 15.7864 7.27673 15.6949 6.96135C15.5846 6.59551 15.8306 6.36213 16.2216 6.46305C16.8051 6.61759 17.3948 6.85097 17.9846 7.15058C18.7888 7.56373 19.5584 8.09357 20.2711 8.71802C20.9839 9.34878 21.602 10.0458 22.1129 10.7901C22.4851 11.3388 22.791 11.8971 23.0149 12.4521C23.1695 12.8243 22.9676 13.0987 22.586 13.0356L22.5892 13.0387Z" fill="#FFC900"/>
<path d="M24.9861 12.758C24.6581 12.7076 24.3112 12.4174 24.1882 12.0926C22.9929 8.94194 19.7066 6.0499 16.4329 5.25829C16.0986 5.17629 15.7675 4.87037 15.6729 4.54869C15.5657 4.186 15.8022 3.95262 16.1806 4.04723C17.0227 4.24907 17.8805 4.57076 18.7352 5.00914C19.7886 5.54844 20.7978 6.23597 21.7313 7.06227C22.6649 7.88226 23.4754 8.80002 24.144 9.77454C24.6865 10.5693 25.1122 11.3767 25.4213 12.1904C25.5601 12.5562 25.3582 12.818 24.9861 12.7549V12.758Z" fill="#FFC900"/>
</g>
<defs>
<clipPath id="clip0_2713_7099">
<rect width="30.5572" height="32" fill="white" transform="translate(0.260254)"/>
</clipPath>
</defs>
</svg>
