<svg width="27" height="27" viewBox="0 0 27 27" fill="none" xmlns="http://www.w3.org/2000/svg">
<path fill-rule="evenodd" clip-rule="evenodd" d="M17.0355 19.337C16.8413 19.5731 16.6263 19.7328 16.3835 19.7953C16.0713 19.8786 15.7869 19.7883 15.5927 19.7119C12.6514 18.5314 10.4941 16.3718 10.4941 16.3718C10.4941 16.3718 8.34367 14.2192 7.1644 11.2749C7.0881 11.0804 7.00485 10.7957 7.08116 10.4833C7.14359 10.2402 7.2962 10.0249 7.53899 9.83051C10.1819 7.62229 10.9589 7.3862 10.4039 6.24042C7.90664 1.10875 7.88583 0.601828 7.31008 0.372674C5.78397 -0.238405 4.05669 0.865704 3.8139 1.02542C1.35826 2.59478 0.837997 5.87933 0.886555 7.01816C1.03917 10.4971 2.91211 15.2955 7.00485 19.8092C11.4444 24.295 16.432 26.4477 19.845 25.9963C20.282 25.9408 24.3539 25.538 25.8315 23.0659C25.9979 22.7812 27.0801 21.0799 26.4835 19.5661C26.2546 18.9898 25.88 18.6842 20.6219 16.4691C20.3583 16.3579 19.8241 15.9621 17.0425 19.337H17.0355Z" fill="#FFC900"/>
</svg>
