<svg width="34" height="29" viewBox="0 0 34 29" fill="none" xmlns="http://www.w3.org/2000/svg">
<g clip-path="url(#clip0_694_4668)">
<path d="M8.66085 17.6174C8.48521 17.1411 8.7323 16.6112 9.20863 16.4355C9.68496 16.2599 10.2149 16.507 10.3905 16.9833L13.6742 25.8519C13.8498 26.3282 13.6027 26.8581 13.1264 27.0338C12.6501 27.2094 12.1202 26.9623 11.9445 26.486L8.66085 17.6174Z" fill="#8B8B8B"/>
<path d="M14.0281 20.7324L13.8733 24.1947L16.1031 22.3043L14.031 20.7324H14.0281ZM11.9412 26.2221L12.2686 18.9015H12.2716C12.2805 18.7199 12.3401 18.5413 12.4562 18.3865C12.7628 17.9816 13.3404 17.9042 13.7423 18.2108L18.0709 21.4945C18.1453 21.5421 18.2138 21.6017 18.2733 21.6731C18.6008 22.0601 18.5532 22.6436 18.1662 22.9711L13.4565 26.9663C13.2868 27.1092 13.0635 27.1926 12.8224 27.1836C12.3133 27.1628 11.9203 26.7311 11.9441 26.225L11.9412 26.2221Z" fill="#8B8B8B"/>
<path d="M31.4082 0.625363C31.8845 0.44674 32.4144 0.68788 32.593 1.16123C32.7717 1.63756 32.5305 2.16747 32.0572 2.34609L2.09026 13.7333C1.61393 13.9119 1.08401 13.6708 0.905392 13.1974C0.726769 12.7211 0.96791 12.1912 1.44126 12.0126L31.4082 0.625363Z" fill="#8B8B8B"/>
<path d="M1.44119 12.0121C1.91751 11.8335 2.44743 12.0746 2.62605 12.548C2.80467 13.0243 2.56353 13.5542 2.09018 13.7328C2.0753 13.7388 2.06934 13.7447 2.06637 13.7477L2.06041 13.7775L2.06637 13.8013C2.06934 13.8072 2.0753 13.8102 2.09018 13.8162C2.57246 13.9769 2.83147 14.4979 2.6707 14.9802C2.50994 15.4625 1.98896 15.7215 1.50668 15.5607C0.920203 15.3613 0.53021 14.9415 0.345634 14.4503C0.26823 14.2478 0.226552 14.0275 0.223575 13.8072C0.220598 13.5869 0.253345 13.3666 0.321817 13.1612C0.491509 12.6641 0.863639 12.2294 1.44119 12.0121Z" fill="#8B8B8B"/>
<path d="M1.5066 15.5605C1.02432 15.3998 0.765315 14.8788 0.926075 14.3965C1.08684 13.9142 1.60782 13.6552 2.0901 13.816L9.4166 16.2929L26.6507 5.94168C27.0854 5.6797 27.651 5.8226 27.913 6.26023C28.1482 6.6532 28.0559 7.15334 27.7135 7.43914L14.6383 18.8948L24.5906 26.4476C24.9955 26.7542 25.0729 27.3317 24.7662 27.7336C24.4596 28.1385 23.8821 28.2159 23.4802 27.9093L12.6705 19.7075C12.605 19.6629 12.5455 19.6123 12.4919 19.5498C12.1585 19.1687 12.1972 18.5852 12.5782 18.2518L18.7913 12.8097L10.0061 18.088C9.78278 18.225 9.50294 18.2666 9.23203 18.1773L1.50362 15.5665L1.5066 15.5605Z" fill="#8B8B8B"/>
<path d="M23.481 27.9054C23.0761 27.5987 22.9987 27.0212 23.3053 26.6193C23.6119 26.2144 24.1895 26.137 24.5914 26.4436C24.7075 26.5329 24.8385 26.5925 24.9754 26.6252C25.1779 26.6758 25.3892 26.6639 25.5798 26.5955C25.7763 26.527 25.9489 26.4049 26.071 26.2412C26.1514 26.137 26.2139 26.009 26.2496 25.8601C26.3717 25.3659 26.8688 25.0653 27.363 25.1873C27.8572 25.3094 28.1579 25.8065 28.0358 26.3007C27.9376 26.6967 27.7619 27.051 27.5327 27.3516C27.1814 27.8131 26.7111 28.1495 26.1901 28.3311H26.1871C25.6631 28.5157 25.0856 28.5514 24.5259 28.4115C24.1657 28.3221 23.8084 28.1554 23.478 27.9054H23.481Z" fill="#8B8B8B"/>
<path d="M28.0409 26.305C27.9188 26.7992 27.4157 27.0999 26.9245 26.9748C26.4303 26.8528 26.1296 26.3496 26.2546 25.8584L32.1194 2.39933C32.2415 1.90514 32.7446 1.60446 33.2358 1.7295C33.73 1.85156 34.0307 2.35468 33.9056 2.84589L28.0409 26.305Z" fill="#8B8B8B"/>
<path d="M33.9058 2.84558C33.7837 3.33977 33.2806 3.64045 32.7894 3.51542C32.2952 3.39336 31.9945 2.89024 32.1196 2.39903C32.1225 2.38712 32.1225 2.38116 32.1196 2.37521L32.1166 2.36628L32.1047 2.35437C32.0987 2.34842 32.0898 2.34544 32.0838 2.34246H32.0809C32.0749 2.34246 32.066 2.34246 32.0571 2.34842C31.5807 2.52704 31.0508 2.2859 30.8722 1.81255C30.6936 1.33622 30.9347 0.806307 31.4081 0.627684C31.7713 0.49074 32.1404 0.472878 32.4798 0.547304L32.5304 0.559212C32.8311 0.633638 33.105 0.78249 33.3283 0.981952C33.5337 1.16355 33.7004 1.39576 33.8135 1.65774L33.8403 1.72324C33.9713 2.0656 34.004 2.45261 33.9058 2.84856V2.84558Z" fill="#8B8B8B"/>
</g>
<defs>
<clipPath id="clip0_694_4668">
<rect width="33.7388" height="28" fill="white" transform="translate(0.223389 0.5)"/>
</clipPath>
</defs>
</svg>
