<svg width="48" height="29" viewBox="0 0 48 29" fill="none" xmlns="http://www.w3.org/2000/svg">
<path d="M46.9356 2.42495C46.4063 4.08919 45.6928 5.5378 44.7989 6.85312L44.8361 6.79431C43.958 8.25796 42.9092 9.94899 41.69 11.8674C40.6445 13.382 40.0911 14.1661 40.0296 14.2197C39.7591 14.5588 39.5709 14.9744 39.5063 15.4311L39.5043 15.4448C39.5572 15.8604 39.7493 16.223 40.0296 16.4936L40.8137 17.3678C45.0086 21.679 47.3681 24.6507 47.8921 26.283C47.9608 26.4633 48 26.6711 48 26.8887C48 27.269 47.8784 27.6199 47.6726 27.908L47.6765 27.9021C47.3315 28.2569 46.8493 28.4765 46.3161 28.4765C46.2573 28.4765 46.1965 28.4745 46.1397 28.4686H46.1475H40.9902C40.9882 28.4686 40.9843 28.4686 40.9804 28.4686C40.3198 28.4686 39.7121 28.2373 39.2357 27.8531L39.2416 27.857C38.5477 27.2866 37.9302 26.6691 37.3774 25.9987L37.3598 25.9752C36.4568 24.9546 35.6557 24.0954 34.9566 23.3975C32.6278 21.1837 30.9093 20.0769 29.8011 20.0769C29.76 20.0729 29.7129 20.071 29.6639 20.071C29.3405 20.071 29.0386 20.171 28.7897 20.3415L28.7955 20.3376C28.5917 20.5924 28.4682 20.9217 28.4682 21.2765C28.4682 21.3471 28.4721 21.4137 28.4819 21.4824V21.4745C28.429 22.09 28.3976 22.8055 28.3976 23.5288C28.3976 23.7621 28.4015 23.9934 28.4074 24.2247V24.1914V26.4633C28.427 26.5554 28.4388 26.6613 28.4388 26.7691C28.4388 27.2435 28.2231 27.6669 27.886 27.9472L27.884 27.9492C27.1254 28.2961 26.2394 28.5 25.3044 28.5C25.1044 28.5 24.9084 28.4902 24.7143 28.4726L24.7398 28.4745C21.6544 28.4157 18.7925 27.512 16.3598 25.9889L16.4284 26.0281C13.4665 24.2286 11.0123 21.8862 9.14222 19.1183L9.08929 19.036C7.31332 16.6798 5.65692 14.0178 4.24555 11.2107L4.10834 10.9088C3.28308 9.33674 2.42841 7.40395 1.69137 5.41627L1.57375 5.05363C1.27384 4.15976 1.05625 3.12083 0.966079 2.04467L0.962158 1.99566C0.962158 1.00509 1.545 0.509801 2.71069 0.509801H7.86611C7.91315 0.505881 7.96804 0.50392 8.02489 0.50392C8.51102 0.50392 8.95992 0.67054 9.31472 0.950854L9.3108 0.946934C9.70285 1.37623 9.99296 1.90353 10.1361 2.4916L10.1419 2.51512C11.0907 5.19476 12.0963 7.44511 13.2528 9.60137L13.1215 9.33282C14.0663 11.2342 15.1111 12.871 16.303 14.3824L16.2579 14.3216C17.3033 15.6049 18.1188 16.2466 18.7042 16.2466C18.7219 16.2485 18.7435 16.2485 18.767 16.2485C19.0571 16.2485 19.31 16.0917 19.4472 15.8565L19.4491 15.8526C19.5942 15.4801 19.6785 15.0469 19.6785 14.5961C19.6785 14.5 19.6746 14.4039 19.6667 14.3099V14.3216V6.71787C19.6256 5.82204 19.406 4.98502 19.0394 4.23425L19.0551 4.27149C18.8121 3.75399 18.52 3.30706 18.173 2.90913L18.1789 2.91697C17.8574 2.59549 17.6379 2.17404 17.5693 1.70358L17.5673 1.69182C17.5673 1.35858 17.7202 1.05867 17.9594 0.862643L17.9613 0.860683C18.1985 0.643097 18.5161 0.511761 18.863 0.511761H18.8787H27.0058C27.049 0.505881 27.098 0.50392 27.1489 0.50392C27.5312 0.50392 27.8742 0.676421 28.1016 0.946934L28.1036 0.948894C28.3055 1.31742 28.4251 1.75847 28.4251 2.22501C28.4251 2.2995 28.4211 2.37202 28.4153 2.44455V2.43475V12.575C28.4113 12.6221 28.4094 12.677 28.4094 12.7319C28.4094 13.0926 28.5093 13.4317 28.6818 13.7198L28.6779 13.712C28.821 13.9237 29.0602 14.0609 29.3307 14.0609C29.6757 14.0374 29.9913 13.9237 30.2559 13.7433L30.25 13.7473C30.7832 13.3807 31.2419 12.9632 31.6398 12.4908L31.6477 12.481C32.8375 11.1362 33.9353 9.65038 34.8919 8.07043L34.9683 7.93321C35.6426 6.81588 36.3718 5.43979 37.0324 4.02646L37.154 3.73831L38.0282 1.98978C38.3321 1.11551 39.1475 0.5 40.1061 0.5C40.1433 0.5 40.1806 0.5 40.2178 0.50196H40.2119H45.3693C46.7624 0.50196 47.2851 1.14296 46.9375 2.42495H46.9356Z" fill="#8B8B8B"/>
</svg>
