<svg width="32" height="33" viewBox="0 0 32 33" fill="none" xmlns="http://www.w3.org/2000/svg">
<g clip-path="url(#clip0_694_4656)">
<path fill-rule="evenodd" clip-rule="evenodd" d="M29.352 13.7184C29.3362 12.3212 29.3173 10.6655 28.9483 9.06964C28.614 7.6252 27.9706 6.18706 26.7154 4.99177C26.1698 4.47139 25.5453 4.03932 24.8326 3.69556C24.0977 3.33602 23.2714 3.0711 22.3442 2.89449C20.6317 2.56649 18.7237 2.54442 16.8755 2.5255V2.5318H16.7494L16.7084 2.52234L16.1186 2.51288V2.51919H16.0934V2.51288L15.5005 2.52234L15.4595 2.5318H15.3333V2.5255C13.4852 2.54442 11.5771 2.56649 9.86461 2.89449C8.9374 3.0711 8.1111 3.33602 7.37626 3.69556C6.6635 4.04248 6.03905 4.47455 5.49344 4.99177C4.23823 6.18706 3.59485 7.6252 3.26055 9.06964C2.89155 10.6655 2.87263 12.3212 2.85686 13.7184V13.7278C2.8474 14.428 2.83794 15.2543 2.8884 16.1878C2.93255 17.0362 3.03032 17.9539 3.23532 18.8906C3.34885 19.4078 3.48447 19.884 3.64216 20.3161C3.79985 20.7513 3.98592 21.1645 4.19723 21.5587C4.44322 22.016 4.72076 22.4355 5.02983 22.8139C5.3389 23.1924 5.68898 23.5488 6.07689 23.8736L6.07374 23.8768C6.38912 24.1385 6.72658 24.3751 7.08611 24.5895C7.44249 24.8008 7.79887 24.9774 8.15525 25.1225L9.43254 25.6397V29.2004L12.6273 25.9488L13.4852 25.9583C14.2831 25.9677 15.1125 25.9551 15.9515 25.9425C16.0965 25.9299 16.106 25.9299 16.2479 25.9425L16.6484 25.9488C16.8787 25.952 17.0994 25.9551 18.1181 25.9551C19.7139 25.9551 21.2372 25.8857 22.5997 25.5735C23.8707 25.2834 25.0565 24.7693 26.1256 23.8768C26.5136 23.5488 26.8636 23.1955 27.1727 22.8171C27.4818 22.4355 27.7593 22.0192 28.0053 21.5619C28.2198 21.1676 28.4058 20.7513 28.5604 20.3193C28.7181 19.8872 28.8537 19.411 28.9672 18.8906C29.1722 17.9539 29.27 17.0362 29.3141 16.1878C29.3614 15.2543 29.352 14.428 29.3457 13.7278V13.7184H29.352ZM31.3736 13.7026C31.3389 10.6875 31.2916 6.55291 28.1094 3.52525C26.7028 2.18488 24.9398 1.32705 22.7227 0.90444C20.8525 0.544906 18.8309 0.522829 16.8755 0.503906H15.3333C13.378 0.525983 11.3564 0.54806 9.48616 0.90444C7.27219 1.32705 5.50921 2.18804 4.09946 3.52525C0.91727 6.55291 0.869963 10.6875 0.835271 13.7026C0.816348 15.1975 0.794271 17.2348 1.25157 19.3195C1.51019 20.499 1.90126 21.5745 2.41217 22.5206C3.02086 23.6465 3.81562 24.6242 4.77753 25.4316C5.60698 26.1223 6.48374 26.6332 7.40465 27.0053V31.3513C7.40465 31.818 7.68534 32.2375 8.12056 32.4141C8.26248 32.4709 8.41071 32.4993 8.55579 32.4993C8.85855 32.4993 9.15186 32.3794 9.37262 32.1523L13.4757 27.9799C14.3272 27.9893 15.1914 27.9767 16.0713 27.9609C16.1091 27.9546 16.1091 27.9546 16.147 27.9609C16.8156 27.9704 17.4747 27.983 18.1276 27.983C21.5526 27.983 24.7569 27.6708 27.4376 25.4284C28.3995 24.6211 29.1943 23.6434 29.803 22.5175C30.3139 21.5713 30.705 20.4959 30.9636 19.3164C31.4209 17.2348 31.3988 15.1943 31.3799 13.6994L31.3736 13.7026Z" fill="#8B8B8B"/>
<path d="M22.0227 20.3346C21.5402 21.0947 19.6574 21.9115 18.4747 22.0723C16.4531 22.3404 13.4949 21.0663 10.8646 18.4076C8.43931 15.7332 7.32917 12.8916 7.23771 10.829C7.20617 10.1541 7.51525 8.21136 8.9723 7.28099C9.12053 7.18953 10.1424 6.53669 11.0475 6.89622C11.3881 7.02868 11.4007 7.33145 12.8799 10.3686C13.211 11.0466 12.7506 11.1791 11.1831 12.4911C11.0412 12.6078 10.9497 12.7371 10.915 12.879C10.8677 13.0651 10.9182 13.2322 10.9624 13.3489C11.6625 15.0898 12.9366 16.3639 12.9366 16.3639C12.9366 16.3639 14.2108 17.6412 15.958 18.3414C16.0747 18.3887 16.245 18.436 16.4279 18.3887C16.5698 18.354 16.6991 18.2625 16.8158 18.1206C18.1246 16.5532 18.2603 16.0896 18.9383 16.4239C21.9754 17.9062 22.2751 17.9156 22.4107 18.2562C22.7702 19.1582 22.1174 20.1832 22.0259 20.3283L22.0227 20.3346Z" fill="#8B8B8B"/>
<path d="M17.0075 9.50444C17.2913 9.59905 17.5752 9.72205 17.859 9.86397C18.3888 10.1352 18.8935 10.4821 19.3602 10.8953C19.827 11.3053 20.237 11.7626 20.5713 12.2546C20.751 12.5195 20.9056 12.7844 21.0349 13.0525C21.2241 13.4467 21.0286 13.7526 20.628 13.6864C20.3253 13.6359 20.0004 13.3836 19.8585 13.0872C19.3444 12.0117 18.2501 11.0466 17.1179 10.6713C16.8056 10.5673 16.5155 10.2771 16.4272 9.98382C16.3136 9.5959 16.5912 9.36252 17.0043 9.50129L17.0075 9.50444Z" fill="#8B8B8B"/>
<path d="M23.1543 13.5387C22.8327 13.4883 22.492 13.2107 22.3627 12.8922C21.4828 10.735 19.2531 8.77018 17.0013 8.16465C16.6701 8.0795 16.3516 7.77673 16.2601 7.46135C16.1497 7.09551 16.3957 6.86213 16.7868 6.96305C17.3703 7.11759 17.96 7.35097 18.5498 7.65058C19.354 8.06373 20.1235 8.59357 20.8363 9.21802C21.5491 9.84878 22.1672 10.5458 22.6781 11.2901C23.0503 11.8388 23.3562 12.3971 23.5801 12.9521C23.7346 13.3243 23.5328 13.5987 23.1512 13.5356L23.1543 13.5387Z" fill="#8B8B8B"/>
<path d="M25.5515 13.2573C25.2235 13.2068 24.8766 12.9167 24.7536 12.5919C23.5583 9.4412 20.272 6.54917 16.9984 5.75756C16.6641 5.67556 16.3329 5.36964 16.2383 5.04795C16.1311 4.68527 16.3676 4.45188 16.7461 4.5465C17.5881 4.74834 18.446 5.07003 19.3007 5.50841C20.354 6.04771 21.3632 6.73524 22.2968 7.56154C23.2303 8.38153 24.0408 9.29928 24.7094 10.2738C25.2519 11.0686 25.6777 11.8759 25.9867 12.6896C26.1255 13.0555 25.9236 13.3172 25.5515 13.2542V13.2573Z" fill="#8B8B8B"/>
</g>
<defs>
<clipPath id="clip0_694_4656">
<rect width="30.5572" height="32" fill="white" transform="translate(0.825439 0.5)"/>
</clipPath>
</defs>
</svg>
