<svg width="29" height="29" viewBox="0 0 29 29" fill="none" xmlns="http://www.w3.org/2000/svg">
<g clip-path="url(#clip0_694_4663)">
<path fill-rule="evenodd" clip-rule="evenodd" d="M4.5872 25.4092L3.12759 25.7876L3.21469 25.4663C3.30779 25.1209 3.39188 24.7845 3.47598 24.4542C3.66519 23.7063 3.84538 22.9915 4.09166 22.2978C4.2268 21.9134 4.26885 21.577 4.2238 21.2466C4.17875 20.9132 4.04961 20.5829 3.84238 20.2135C3.17565 19.0302 2.73716 17.7928 2.50891 16.5494C2.05241 14.0627 2.42782 11.5429 3.46997 9.33549C4.51212 7.12806 6.22401 5.22696 8.43444 3.98059C9.55768 3.34989 10.8101 2.88438 12.1706 2.63511C12.2967 2.61108 12.4138 2.59306 12.5189 2.57504C15.7265 2.0825 18.8289 2.90841 21.2796 4.65934C23.7303 6.41027 25.5233 9.08922 26.1119 12.2937C26.1359 12.4229 26.157 12.54 26.172 12.6481C26.6705 15.8917 25.8026 19.0362 23.9976 21.4989C22.1926 23.9616 19.4506 25.7456 16.195 26.2651C14.7955 26.4904 13.438 26.4754 12.1255 26.2261C10.789 25.9738 9.50062 25.4843 8.25725 24.7665C8.11609 24.6854 7.98995 24.6343 7.85781 24.6163C7.72866 24.5953 7.59351 24.6073 7.44035 24.6464C6.52434 24.9046 5.5813 25.1509 4.59021 25.4062L4.5872 25.4092ZM0.529731 27.935L0.382568 28.4996C0.830061 28.3945 1.54485 28.2053 2.4969 27.956C3.6802 27.6437 5.2239 27.2382 7.04691 26.7817C7.20308 26.7427 7.38328 26.7337 7.55748 26.7547C7.73167 26.7727 7.90286 26.8208 8.04701 26.8928C9.44055 27.5686 10.8641 28.0191 12.3207 28.2293C13.7623 28.4395 15.2339 28.4185 16.7416 28.1602L16.8257 28.1452C20.5978 27.4605 23.7273 25.3131 25.7455 22.3849C27.7667 19.4536 28.6768 15.7415 28.007 11.9303L27.992 11.8433C27.953 11.627 27.9079 11.4048 27.8538 11.1795C27.055 7.77677 24.9677 4.81851 22.1265 2.88438C19.2884 0.950248 15.6934 0.043249 11.8852 0.73401C11.651 0.776057 11.4077 0.827113 11.1554 0.887179C9.9421 1.17249 8.81586 1.59596 7.77972 2.13956C4.98364 3.60818 2.86631 5.93875 1.62594 8.67176C0.388575 11.4048 0.0311811 14.5432 0.751975 17.6216C1.02227 18.7779 1.44574 19.9222 2.02838 21.0364C2.10046 21.1715 2.14551 21.3367 2.16053 21.5019C2.17855 21.6731 2.16653 21.8473 2.12749 22.0004V22.0034C1.79112 23.2949 1.43673 24.5833 1.08234 25.8687L0.733956 27.1301L0.520721 27.941L0.529731 27.935Z" fill="#8B8B8B"/>
<path fill-rule="evenodd" clip-rule="evenodd" d="M17.9883 21.19C15.2343 21.0909 10.8434 18.9165 7.84013 13.6938C6.77396 11.8407 6.92713 9.72339 8.48885 8.26979C9.01743 7.77425 9.68116 7.89438 10.3028 8.0025C10.456 8.02652 10.6122 8.25778 10.6903 8.43197C11.0897 9.34498 11.4862 10.255 11.8345 11.189C12.0177 11.6816 11.6814 12.1411 10.9666 12.964C10.7383 13.2253 10.6903 13.4625 10.8705 13.7689C12.0267 15.724 13.6425 17.1416 15.7689 17.9705C16.0812 18.0906 16.3155 18.0155 16.5137 17.7723C17.6399 16.3967 17.7541 15.9943 18.3487 16.2796C21.1989 17.6401 21.4211 17.7002 21.4331 18.0215C21.5292 20.4242 19.3278 21.2891 17.9913 21.193L17.9883 21.19Z" fill="#8B8B8B"/>
</g>
<defs>
<clipPath id="clip0_694_4663">
<rect width="27.8407" height="28" fill="white" transform="translate(0.382568 0.5)"/>
</clipPath>
</defs>
</svg>
